<?xml version="1.0" encoding="utf-8"?>
<!-- Generator: Adobe Illustrator 24.0.2, SVG Export Plug-In . SVG Version: 6.00 Build 0)  -->
<svg version="1.1" id="Layer_1" xmlns="http://www.w3.org/2000/svg" xmlns:xlink="http://www.w3.org/1999/xlink" x="0px" y="0px"
	 viewBox="0 0 792 612" style="enable-background:new 0 0 792 612;" xml:space="preserve">
<style type="text/css">
	.st0{fill:#4C0511;}
	.st1{fill:#E8E0C2;stroke:#E8E0C2;stroke-miterlimit:10;}
	.st2{fill:#BB8939;stroke:#BB8939;stroke-width:0.25;stroke-miterlimit:10;}
	.st3{fill:#BB8939;stroke:#AC8F5A;stroke-width:0.2835;stroke-miterlimit:10;}
	.st4{fill:#BB8939;stroke:#BB8939;stroke-width:0.5;stroke-miterlimit:10;}
</style>
<g>
	<path class="st0" d="M422.4,293.78c2.26,11.64,3.81,15.08,10.04,12.65c-0.59-1.97-1.14-4.44-1.73-7.49
		c-2.71-13.93-2.66-27.99-2.96-42.04c-0.52-18.3,2.1-36.22,6.23-53.97c6.78-29.2,7.56-58.4,0.24-87.67
		c-0.82-3.27-3.46-7.61,0.15-10.08c2.04-1.4,4.21-0.78,6.31,0.33c-1.53-1.01-3.07-1.99-4.64-2.94c-3.08-1.85-6.71-4.8-9.98-2.56
		c-3.61,2.48-0.97,6.81-0.15,10.08c7.32,29.27,6.54,58.46-0.24,87.67c-4.12,17.75-6.75,35.68-6.23,53.97
		C419.74,265.79,419.69,279.85,422.4,293.78z"/>
	<path class="st0" d="M509.87,166.12c-10.05-32.92-27.62-58.18-54.75-73.29c22.45,15.41,37.45,38.7,46.43,68.13
		c4.39,14.36,6.15,29.28,5.84,42.23c0.58,60.68-31.46,109.45-81.17,126.99c-2.84,1-5.2,1.56-7.21,1.66
		c2.74,5.59,7.07,6.49,15.52,3.51c49.71-17.54,81.76-66.31,81.17-126.99C516.02,195.4,514.26,180.48,509.87,166.12z"/>
</g>
<path class="st1" d="M445.08,394.09"/>
<g>
	<path class="st2" d="M558.77,456.68c-0.59,0-1.33-0.08-1.89-0.66c-0.6-0.6-0.74-1.26-0.74-1.7c0-0.98,0.47-1.97,1.45-3.01
		c0.98-1.04,2.26-1.6,3.69-1.6c0.99,0,1.82,0.25,2.47,0.73c0.31,0.23,1.21,0.92,1.21,2.03c0,1.83-1.93,2.83-2.57,3.16
		C561.04,456.33,559.85,456.68,558.77,456.68z"/>
	<path class="st2" d="M558.77,454.98c0.79,0,1.74-0.29,2.85-0.86c1.1-0.57,1.65-1.12,1.65-1.65c0-0.18-0.18-0.4-0.53-0.66
		c-0.35-0.26-0.84-0.4-1.45-0.4c-0.97,0-1.79,0.35-2.45,1.06c-0.66,0.71-0.99,1.32-0.99,1.85c0,0.18,0.09,0.35,0.26,0.53
		C558.2,454.93,558.42,454.98,558.77,454.98z"/>
	<path class="st2" d="M616.98,456.68c-0.58,0-1.33-0.07-1.88-0.65c-0.61-0.6-0.74-1.27-0.74-1.71c0-0.98,0.47-1.97,1.45-3.01
		c0.98-1.05,2.26-1.6,3.69-1.6c0.99,0,1.82,0.25,2.47,0.73c0.3,0.23,1.21,0.91,1.21,2.03c0,1.83-1.93,2.83-2.57,3.16
		C619.25,456.33,618.06,456.68,616.98,456.68z"/>
	<path class="st2" d="M619.5,451.4c-0.97,0-1.79,0.35-2.45,1.06c-0.66,0.71-0.99,1.32-0.99,1.85c0,0.18,0.09,0.35,0.26,0.53
		c0.09,0.09,0.31,0.13,0.66,0.13c0.79,0,1.74-0.29,2.84-0.86c1.1-0.57,1.65-1.12,1.65-1.65c0-0.18-0.18-0.4-0.53-0.66
		C620.6,451.54,620.11,451.4,619.5,451.4z"/>
	<path class="st2" d="M441.83,449.53c-0.99,0-2.04-0.1-3.14-0.29c-1.19-0.21-2.29-0.58-3.28-1.1c-1.03-0.54-1.93-1.27-2.64-2.15
		c-0.82-1.01-1.24-2.26-1.24-3.72c0-1.12,0.85-1.97,1.97-1.97c1.13,0,2.07,0.65,2.5,1.73l0.04,0.09l0.03,0.09
		c0.31,1.11,0.86,1.82,1.72,2.22c1.09,0.51,2.41,0.77,3.92,0.77c1.37,0,2.83-0.17,4.34-0.49c1.58-0.34,3.12-0.73,4.58-1.16
		c1.42-0.42,2.74-0.88,3.91-1.39c1.19-0.51,2.16-0.98,2.88-1.38c3.08-1.62,6.07-3.67,8.92-6.1c2.84-2.41,5.39-5.16,7.6-8.17
		c2.19-2.99,3.96-6.26,5.27-9.72c1.29-3.41,1.94-6.9,1.94-10.38c0-3.35-0.55-6.22-1.63-8.54c-1.07-2.3-2.53-4.18-4.33-5.6
		c-1.83-1.44-4.08-2.51-6.67-3.2c-2.67-0.71-5.59-1.07-8.69-1.07c-2.69,0-5.53,0.21-8.43,0.63l-1.95,0.28v-7.01l1.5-0.18
		c2.48-0.29,4.94-0.44,7.29-0.44c3.57,0,7.03,0.44,10.3,1.32c3.33,0.89,6.3,2.3,8.84,4.18c2.58,1.91,4.64,4.36,6.13,7.28
		c1.48,2.92,2.24,6.41,2.24,10.36c0,4.23-0.7,8.4-2.08,12.39c-1.36,3.96-3.23,7.72-5.55,11.18c-2.31,3.45-5.1,6.65-8.28,9.51
		c-3.18,2.86-6.63,5.28-10.27,7.19c-0.82,0.46-1.92,0.96-3.33,1.53c-1.37,0.55-2.83,1.07-4.34,1.56c-1.57,0.51-3.25,0.93-4.98,1.25
		C445.14,449.37,443.43,449.53,441.83,449.53z"/>
	<path class="st2" d="M657.86,458.04h-0.78l-0.51,0.6c-2.43,2.85-4.93,5.07-7.4,6.6c-2.36,1.46-4.87,2.19-7.44,2.19
		c-0.27,0-0.54-0.01-0.8-0.02c0.38-0.56,0.74-1.13,1.08-1.72c0.94-1.62,1.42-3.36,1.42-5.15c0-1.79-0.65-3.33-1.89-4.44
		c-1.2-1.08-2.79-1.63-4.71-1.63c-2.25,0-4.29,0.76-6.06,2.26c-1.81,1.54-2.74,3.49-2.78,5.79c-0.35,0.33-0.71,0.65-1.08,0.98
		c-1.81,1.6-3.79,3.05-5.9,4.31c-2.1,1.26-4.26,2.28-6.43,3.03c-2.1,0.73-4.18,1.1-6.19,1.1c-0.68,0-0.9-0.14-0.91-0.14
		c-0.01-0.02-0.04-0.11-0.04-0.28c0-0.73,0.29-1.56,0.86-2.47c0.71-1.13,1.49-2.28,2.31-3.41c0.82-1.11,1.57-2.08,2.25-2.89
		c1.04-1.23,1.46-2.07,1.46-2.88c0-1.04-0.48-1.92-1.32-2.41c-0.57-0.32-1.23-0.49-1.96-0.49c-1.15,0-2.33,0.55-3.59,1.7
		c-1.02,0.92-1.97,2.02-2.83,3.27c-0.8,1.15-1.48,2.4-2.01,3.66c-2.65,2.18-5.57,4.38-8.68,6.56c-3.88,2.72-7.82,5.1-11.69,7.08
		c-2.21,1.11-4.38,2.01-6.45,2.68c-1.98,0.65-3.78,0.97-5.36,0.97c-1.96,0-2.47-0.4-2.52-0.44c-0.2-0.17-0.4-0.43-0.4-1.03
		c0-1,0.5-3.08,2.89-7.3c2-3.53,4.63-7.63,7.83-12.18c1.45-0.83,3.53-2.09,6.21-3.75c2.9-1.8,6.2-3.93,10.1-6.51
		c3.79-2.52,7.92-5.33,12.27-8.36c4.35-3.03,8.75-6.23,13.08-9.5c4.31-3.25,8.53-6.58,12.56-9.9c4.03-3.33,7.65-6.54,10.75-9.55
		c3.14-3.05,5.7-5.9,7.59-8.48c2.09-2.84,3.11-5.27,3.11-7.43c0-2.91-1.45-4.32-2.66-4.99c-1.44-0.8-3.03-1.21-4.73-1.21
		c-3.13,0-6.65,1.04-10.77,3.17c-3.9,2.02-8.13,4.77-12.56,8.17c-4.4,3.38-8.98,7.33-13.63,11.76c-4.65,4.43-9.24,9.13-13.65,13.98
		c-4.42,4.86-8.65,9.86-12.58,14.84c-3.94,5-7.44,9.82-10.4,14.34c-0.57,0.86-1.1,1.71-1.62,2.54c-0.82,0.81-1.69,1.62-2.58,2.41
		c-1.81,1.6-3.79,3.05-5.9,4.31c-2.1,1.26-4.26,2.28-6.43,3.03c-2.1,0.73-4.19,1.1-6.19,1.1c-0.68,0-0.9-0.14-0.91-0.14
		c-0.01-0.02-0.04-0.11-0.04-0.28c0-0.73,0.29-1.56,0.86-2.47c0.72-1.15,1.5-2.29,2.32-3.41c0.81-1.11,1.57-2.08,2.24-2.88
		c1.04-1.23,1.46-2.07,1.46-2.88c0-1.04-0.48-1.92-1.33-2.41c-0.57-0.32-1.23-0.48-1.96-0.48c-1.15,0-2.33,0.55-3.59,1.7
		c-1.02,0.92-1.97,2.02-2.84,3.27c-0.66,0.96-1.25,2-1.78,3.19c-2.21,1.9-4.38,3.57-6.64,5.1c-2.65,1.79-5.39,3.32-8.14,4.55
		c-2.63,1.17-5.14,1.77-7.44,1.77c-1.92,0-3.25-0.45-3.96-1.35c-0.82-1.02-1.21-2.19-1.21-3.57c0-1,0.29-2.17,0.85-3.5
		c0.61-1.42,1.37-2.76,2.26-3.96c0.87-1.19,1.85-2.21,2.91-3.04c0.83-0.65,1.62-0.99,2.41-1.02c0.05,0.13,0.07,0.26,0.07,0.41
		c0,0.25-0.12,0.54-0.34,0.86l-0.32,0.44v0.54c0,1.2,0.9,2.1,2.1,2.1c0.78,0,1.5-0.37,2.14-1.11c0.6-0.68,0.89-1.61,0.89-2.84
		c0-1.54-0.59-2.87-1.7-3.86c-1.07-0.94-2.36-1.42-3.84-1.42c-1.88,0-3.7,0.5-5.42,1.48c-1.6,0.92-3.06,2.11-4.32,3.51
		c-1.04,1.16-1.92,2.5-2.62,3.97c-1.5,1.23-2.91,2.26-4.3,3.13c-1.93,1.22-3.93,2.24-5.94,3.03c-1.9,0.75-3.83,1.14-5.72,1.14
		c-0.99,0-1.67-0.21-2.04-0.62c-0.44-0.5-0.69-1.14-0.76-1.97c0.01-1.1,0.22-2.24,0.63-3.41c0.63-0.19,1.28-0.43,1.94-0.73
		c0.98-0.44,1.9-0.96,2.73-1.55c0.85-0.6,1.58-1.23,2.19-1.89c0.83-0.89,1.24-1.88,1.24-2.94v-0.12l-0.02-0.12
		c-0.14-1-0.9-3.31-4.86-3.31c-1.76,0-3.34,0.48-4.69,1.44c-1.24,0.88-2.29,2-3.13,3.33c-0.78,1.23-1.38,2.6-1.81,4.06
		c-3.77,3.48-8.49,7.47-14.05,11.85c-6.36,5.01-13.54,10.28-21.35,15.68c-7.77,5.37-16.07,10.74-24.66,15.95
		c-8.57,5.2-17.18,9.92-25.59,14.01c-8.4,4.09-16.56,7.44-24.26,9.97c-7.6,2.49-14.43,3.75-20.31,3.75
		c-6.46,0-11.46-1.76-14.86-5.24c-3.41-3.49-5.14-8.99-5.14-16.34c0-6.07,1.04-12.58,3.1-19.35c2.08-6.83,5-13.86,8.68-20.87
		c3.69-7.04,8.16-14.1,13.29-21.01c5.15-6.93,10.8-13.62,16.8-19.88c6-6.26,12.47-12.18,19.22-17.58
		c6.72-5.38,13.64-10.12,20.55-14.07c2.96-1.7,6.03-3.28,9.12-4.7l0.99-0.46v-7.8l-2.38,1.03c-3.74,1.62-7.5,3.47-11.19,5.53
		c-7.11,3.96-14.2,8.73-21.07,14.18c-6.85,5.44-13.45,11.41-19.61,17.74c-6.15,6.32-11.9,13.1-17.08,20.16
		c-5.18,7.05-9.75,14.28-13.56,21.51c-3.83,7.26-6.85,14.57-8.99,21.74c-2.15,7.22-3.25,14.22-3.25,20.79
		c0,9.28,2.14,16.5,6.36,21.47c4.29,5.05,10.78,7.61,19.29,7.61c4.8,0,10.17-0.78,15.98-2.31c5.73-1.51,11.83-3.6,18.14-6.22
		c6.29-2.61,12.83-5.71,19.46-9.19c6.63-3.49,13.27-7.27,19.74-11.23c6.47-3.96,12.9-8.09,19.11-12.28
		c6.19-4.17,12.07-8.35,17.46-12.41c6.46-4.78,12.21-9.35,17.1-13.58c0.86-0.75,1.7-1.48,2.51-2.2c0.33,1.49,0.96,2.8,1.86,3.91
		c1.31,1.6,3.31,2.41,5.95,2.41c2.57,0,5.15-0.46,7.65-1.36c2.44-0.87,4.81-2.01,7.06-3.39c0.31-0.19,0.61-0.38,0.92-0.58
		c0.07,2.67,1.02,5.01,2.83,6.97c1.92,2.08,4.83,3.13,8.66,3.13c2.86,0,5.91-0.67,9.06-1.98c3.05-1.27,6.06-2.91,8.96-4.85
		c1.11-0.75,2.2-1.53,3.27-2.33c0.29,1.13,0.87,2.08,1.71,2.84c1.24,1.13,3.07,1.7,5.44,1.7c2.48,0,5.03-0.46,7.58-1.35
		c2.48-0.87,4.91-2.04,7.21-3.47c0.03-0.02,0.07-0.04,0.1-0.06c-1.73,3.84-2.57,6.92-2.57,9.4c0,1.71,0.51,3.21,1.5,4.44
		c1.1,1.36,2.98,2.02,5.75,2.02c2.3,0,4.84-0.48,7.57-1.42c2.62-0.9,5.36-2.12,8.13-3.62c2.72-1.47,5.5-3.14,8.27-4.97
		c2.67-1.77,5.21-3.58,7.55-5.39c0.3,1.07,0.87,1.98,1.68,2.71c1.24,1.13,3.07,1.7,5.44,1.7c2.48,0,5.03-0.46,7.57-1.35
		c2.48-0.87,4.91-2.04,7.21-3.47c0.83-0.51,1.64-1.05,2.43-1.61c0.01,1.53,0.46,2.72,1.35,3.54c0.84,0.77,1.92,1.17,3.13,1.17
		c1.38,0,2.79-0.44,4.2-1.31c0.97-0.59,1.89-1.28,2.75-2.06c0.58,0.15,1.16,0.25,1.73,0.31c0.84,0.09,1.71,0.14,2.57,0.14
		c3.39,0,6.62-0.91,9.6-2.69c2.89-1.72,5.71-4.23,8.38-7.45l0.39-0.47v-0.61C660.22,459.06,659.25,458.04,657.86,458.04z
		 M590.71,445.74c3.98-4.81,8.15-9.6,12.38-14.22c4.23-4.62,8.57-9.12,12.9-13.36c4.31-4.22,8.48-7.99,12.39-11.21
		c3.87-3.18,7.49-5.73,10.74-7.57c3.08-1.74,5.6-2.62,7.5-2.62c0.85,0,1.59,0.19,2.26,0.57c0.26,0.15,0.53,0.37,0.53,1.17
		c0,0.79-0.34,2.22-1.95,4.6c-1.43,2.11-3.43,4.43-5.94,6.89c-2.54,2.5-5.54,5.21-8.9,8.05c-3.39,2.86-6.96,5.77-10.59,8.62
		c-4.21,3.25-8.56,6.46-12.91,9.55c-4.43,3.15-8.68,6.1-12.61,8.78c-3.98,2.71-7.66,5.15-10.94,7.25c-0.05,0.03-0.1,0.06-0.15,0.1
		C587.1,450.16,588.87,447.97,590.71,445.74z M499.05,458.6c0.01,1.16-1,2.88-6.39,3.91c0,0,0.3-5.16,5.11-5.16
		C498.47,457.35,499.05,457.91,499.05,458.6z M632.09,469.84c0.01-0.03,0.18-0.35,0.25-0.49c0.09,0.05,0.18,0.11,0.28,0.16
		C632.52,469.57,632.17,469.79,632.09,469.84z M638.09,463.81c-0.56,0.92-1.16,1.75-1.79,2.46c-0.36-0.12-0.74-0.27-1.13-0.43
		c-0.1-0.04-0.2-0.09-0.29-0.13c0.58-0.7,1.18-1.31,1.79-1.82c1.56-1.31,2.26-2.39,2.26-3.49c0-0.36-0.07-0.7-0.19-1.01
		c0.3,0.24,0.36,0.83,0.36,1.28C639.09,461.66,638.75,462.72,638.09,463.81z"/>
</g>
<path class="st3" d="M324.76,332.24c-59.86-49.05-70.84-111.91-51.21-183.11c4.7-17.05,5.31-17.25-11.88-22.95
	c-41.42-13.75-84.11-12.48-126.86-10.5c-9.69,0.45-10.27,7.22-10.81,14.21c-3.13,40.13-1.53,79.95,9.79,118.82
	c7.99,27.43,22.25,50.8,48.18,65.06c45.93,25.24,95.85,27.6,146.38,26.09c0.81-1.42,1.62-2.84,2.44-4.25
	C328.77,334.49,326.51,333.67,324.76,332.24z M226.34,138.87c7.7-3.08,16.1,0.9,23.36,4.65c5.09,2.63,3.59,7.79,2.49,12.19
	c-4.46,17.72-6.47,35.71-6.65,53.95c-0.03,2.91,1.33,7.09-2.74,8.21c-3.47,0.95-5.26-2.85-7.78-4.6
	c-16.05-11.15-12.07-27.9-12.5-43.48c0-4.54-0.21-9.1,0.05-13.62C222.9,150.1,219.28,141.7,226.34,138.87z M161.12,135.89
	c1.21-3.77,4.94-3.43,8.05-3.47c4.07-0.04,8.15,0.18,12.22,0.39c22.7,1.17,22.7,1.18,22.68,25.76c-1.66,5.24,3.83,14.72-3.19,17.44
	c-5.2,2.01-9.58-6.9-14.08-11.17c-7.56-7.17-14.81-14.66-22.12-22.08C162.81,140.85,160.17,138.86,161.12,135.89z M142.03,155.61
	c0.01-6.47,4.98-3.44,7.49-0.9c17.49,17.66,34.83,35.46,52.21,53.22c-18.04,3.22-36.14,1.72-54.24,0.77
	C138.56,191.77,142,173.43,142.03,155.61z M150,231c1.72-3.58,5.05-3.53,8.16-3.54c19.48-0.06,39.13-1.6,58.37,0.52
	c15.87,1.75,23.52,17.23,33.22,28.1c4.11,4.6-2.74,5.28-5.85,5.34c-13.13,0.26-26.27,0.11-39.4,0.11c0,0.03,0,0.07,0,0.1
	c-12.23,0-24.47,0.37-36.68-0.12C158.47,261.13,146.05,239.22,150,231z M273.96,319.94c-33.37-2.84-65.68-9.18-93.19-30.14
	c-2.42-1.84-6.02-3.85-5-7.39c1.12-3.91,5.32-2.71,8.29-2.76c10.89-0.18,21.79-0.07,32.69-0.07c0-0.03,0-0.07,0-0.1
	c3.18,0,6.36,0,9.53,0c36.58,0.03,36.47,0.08,52.46,32.08C281.76,317.62,280.41,320.49,273.96,319.94z"/>
<path class="st3" d="M501.47,160.95c-13.93-45.6-42.25-76.5-90.47-86.1c-15.1-3-16.45-1.43-11.34,13.06
	c12.18,34.54,16.77,69.54,7.96,105.61c-10.33,42.29-8.98,84.42,0.85,126.68c2.6,11.16,6.62,13.87,17.67,9.97
	c49.71-17.54,81.76-66.31,81.17-126.99C507.62,190.23,505.86,175.31,501.47,160.95z M440.26,302.17
	c-13.19,8.07-14.94,7.08-17.95-8.4c-2.71-13.93-2.66-27.99-2.96-42.04c-0.52-18.3,2.1-36.22,6.23-53.97
	c6.78-29.2,7.56-58.4,0.24-87.66c-0.82-3.27-3.46-7.61,0.15-10.08c3.27-2.25,6.9,0.7,9.98,2.56c3.11,1.87,6.14,3.89,9.09,6
	C505.45,151.53,502.66,263.97,440.26,302.17z"/>
<path class="st3" d="M388.38,197.67c9.08-35.9,6.04-71.08-5.15-105.95c-5.49-17.09-6.77-17.76-24.03-10.97
	c-47.52,18.69-76,64.82-75.83,126.23c-0.89,11.78,1.4,26.62,5.78,40.99c13.57,44.55,40.91,75.32,87.98,85.36
	c14.63,3.12,16.42,1.13,12.86-13.06C379.77,279.51,378.02,238.64,388.38,197.67z M370.49,191.64c-8.74,35.31-9.76,70.89-4.19,106.76
	c0.51,3.31,3.09,7.51-1.08,9.92c-3.66,2.12-7.02-0.93-10.02-2.68c-39.23-22.9-52.24-59.47-53.22-100.11
	c0.09-41.92,13.67-75.05,47.09-98.31c14.03-9.76,17.67-7.94,21.43,8.86C376.13,141.29,376.71,166.47,370.49,191.64z"/>
<path class="st3" d="M665.89,126.11c-0.74-7.21-4.87-10.2-11.74-10.53c-40-1.94-79.88-2.46-118.89,8.9
	c-23.15,6.74-22.65,6.57-16.43,30.06c15.34,57.96,7.86,111.66-32.03,158.43c-7.54,8.84-16.91,16.13-28.09,26.62
	c46.32,1.97,88.52-0.45,129.14-15.94c31.32-11.94,54.31-32.24,65.68-64.54C668.79,215.78,670.54,171.26,665.89,126.11z
	 M591.43,135.84c10.6-5.12,22.96-4.13,34.59-2.67c5.48,0.69,4.34,4.98,1.4,7.99c-11.03,11.29-22.14,22.52-33.44,33.55
	c-3.68,3.59-6.65,2.63-6.94-2.8c-0.27-4.95-0.06-9.92-0.06-16.97C588.02,149.78,583.28,139.78,591.43,135.84z M557.22,138.37
	c11.15-1.27,10.11,6.24,10.32,12.98c0.21,6.79,0.05,13.6,0.04,20.4c-0.31,15.09,3.47,31.38-12.32,41.93
	c-2.5,1.67-4.26,5.57-7.94,3.76c-2.8-1.38-1.97-4.76-2.06-7.37c-0.63-18.61-2.54-37.01-6.87-55.2
	C535.92,144.48,541.87,140.12,557.22,138.37z M610.08,289.79c-20.15,16.02-44.09,22.65-68.75,27.25c-8.44,1.58-17.04,2.4-25.61,3.15
	c-6.39,0.56-8.46-1.8-4.57-7.87c5.38-8.37,10.56-16.88,15.46-25.53c3.1-5.47,7.65-7.19,13.53-7.13c10.87,0.11,21.75,0.03,32.62,0.03
	c0-0.03,0-0.06,0-0.09c11.33,0,22.65-0.1,33.98,0.07c2.97,0.04,7.14-1.09,8.29,2.76C616.1,285.97,612.48,287.88,610.08,289.79z
	 M640.4,237.64c-3.59,20.29-7.78,24.06-28.58,24.15c-9.07,0.04-18.15,0.01-27.22,0.01c0-0.21,0-0.41,0-0.62
	c-12.7,0-25.41,0.07-38.11-0.03c-6.85-0.06-8.46-3.06-3.68-8.18c13.56-14.52,26.11-30,50.07-26.01c12.81,2.13,26.26,0.54,39.41,0.44
	C639.65,227.33,641.66,230.52,640.4,237.64z M649.04,175.77c-0.18,32.36-0.19,32.36-32.86,32.31c-6.83-1.13-19.37,3.83-21.75-2.2
	c-3.13-7.91,8.86-13,14.45-19.06c9.83-10.66,20.5-20.55,30.82-30.76c1.9-1.88,3.78-4.59,6.74-3.67c3.31,1.04,2.37,4.51,2.47,7.04
	C649.12,164.87,649.07,170.32,649.04,175.77z"/>
<path class="st0" d="M289.44,384.15H115c-2.2,0-3.98-1.78-3.98-3.98l0,0c0-2.2,1.78-3.98,3.98-3.98h174.43
	c2.2,0,3.98,1.78,3.98,3.98l0,0C293.42,382.37,291.64,384.15,289.44,384.15z"/>
<path class="st0" d="M676.33,384.15H501.9c-2.2,0-3.98-1.78-3.98-3.98l0,0c0-2.2,1.78-3.98,3.98-3.98h174.43
	c2.2,0,3.98,1.78,3.98,3.98l0,0C680.31,382.37,678.53,384.15,676.33,384.15z"/>
<g>
	<g>
		<path class="st2" d="M156.06,486.58h-21.79v-81.81h22.17c4.52,0.15,8.74,1.31,12.66,3.47c3.92,2.16,7.36,5.1,10.33,8.83
			c2.97,3.73,5.3,8.03,6.99,12.92c1.69,4.89,2.54,10.11,2.54,15.67c0,5.61-0.86,10.87-2.58,15.78c-1.72,4.91-4.07,9.23-7.07,12.96
			c-2.99,3.73-6.47,6.66-10.44,8.81C164.9,485.35,160.63,486.47,156.06,486.58z M153.63,485.29c4.04,0,7.83-1.04,11.37-3.11
			c3.54-2.07,6.64-4.93,9.32-8.56c2.68-3.64,4.77-7.86,6.29-12.67c1.52-4.81,2.27-9.96,2.27-15.44c0-6.21-0.96-11.98-2.88-17.3
			c-1.92-5.32-4.54-9.83-7.86-13.53c-3.32-3.7-7.12-6.3-11.39-7.79c-1.64-0.56-3.34-0.83-5.08-0.83h-15.31v79.24H153.63z"/>
		<path class="st2" d="M231.73,486.58c-4.85,0-9.4-1.06-13.66-3.18c-4.26-2.12-8-5.06-11.22-8.81c-3.22-3.75-5.75-8.1-7.58-13.05
			c-1.83-4.95-2.75-10.24-2.75-15.88c0-5.63,0.92-10.93,2.75-15.88c1.83-4.95,4.36-9.3,7.58-13.05c3.22-3.75,6.96-6.69,11.22-8.81
			c4.26-2.12,8.81-3.18,13.66-3.18c4.85,0,9.4,1.06,13.66,3.18c4.26,2.12,8,5.06,11.22,8.81c3.22,3.75,5.75,8.1,7.58,13.05
			c1.83,4.95,2.75,10.24,2.75,15.88c0,5.63-0.92,10.93-2.75,15.88c-1.83,4.95-4.36,9.3-7.58,13.05c-3.22,3.75-6.96,6.69-11.22,8.81
			C241.14,485.52,236.58,486.58,231.73,486.58z M232.53,485.29c5.25-0.28,9.99-2.2,14.21-5.76c4.22-3.56,7.58-8.31,10.1-14.23
			c2.51-5.92,3.77-12.47,3.77-19.65c0-7.17-1.26-13.72-3.77-19.65c-2.51-5.92-5.88-10.67-10.1-14.23
			c-4.22-3.56-8.96-5.48-14.21-5.76h-1.59c-5.25,0.28-9.99,2.2-14.21,5.76c-4.22,3.56-7.58,8.3-10.1,14.23
			c-2.51,5.92-3.77,12.47-3.77,19.65c0,7.18,1.26,13.72,3.77,19.65c2.51,5.92,5.88,10.67,10.1,14.23c4.22,3.56,8.96,5.48,14.21,5.76
			H232.53z"/>
		<path class="st2" d="M330.64,486.58h-4.77l-49.68-74.76l-0.04,48.69c0.03,0.78,0.08,1.58,0.15,2.39
			c0.66,9.73,2.15,17.62,4.47,23.68h-5.95l0.04-76.81l-3.37-5.04h7.35l50.55,76.09l-0.04-7.88c-0.03-28.57-0.05-43.41-0.08-44.52
			c-0.68-9.65-2.17-17.54-4.47-23.68h5.91L330.64,486.58z"/>
	</g>
</g>
<g>
	<g>
		<path class="st2" d="M349.1,395.24c-2.85,0-5.53-0.59-8.03-1.77c-2.5-1.18-4.69-2.81-6.57-4.89c-1.88-2.08-3.36-4.49-4.44-7.25
			c-1.07-2.75-1.61-5.7-1.61-8.85s0.54-6.1,1.61-8.85c1.08-2.75,2.55-5.17,4.44-7.25c1.88-2.08,4.07-3.71,6.57-4.89
			c2.5-1.18,5.18-1.77,8.03-1.77c2.7,0,5.24,0.53,7.63,1.6s4.51,2.55,6.36,4.44l-0.4,3.43c-1.59-2.7-3.56-4.83-5.91-6.41
			c-2.35-1.57-4.91-2.36-7.68-2.36c-2.36,0-4.57,0.57-6.63,1.72c-2.06,1.14-3.86,2.72-5.42,4.74c-1.55,2.02-2.77,4.35-3.65,7.02
			c-0.89,2.66-1.33,5.52-1.33,8.56s0.44,5.91,1.33,8.57c0.88,2.67,2.1,5.01,3.65,7.03c1.55,2.02,3.36,3.6,5.42,4.74
			c2.06,1.14,4.27,1.72,6.63,1.72c2.74,0,5.27-0.77,7.6-2.31c2.33-1.54,4.28-3.63,5.87-6.27l1.75,1.9c-1.91,2.29-4.17,4.09-6.78,5.4
			C354.91,394.58,352.1,395.24,349.1,395.24z"/>
		<path class="st2" d="M371.91,395.24h-3.39l15.57-43.89l-0.57-1.62h3.6l15.8,45.49h-3.6l-4.57-13.13h-20.73l-0.06,0.25
			c-1.38,4.97-2.06,9.21-2.06,12.73L371.91,395.24z M394.5,381.38l-10.03-28.93c-6.71,18.89-10.13,28.53-10.24,28.93H394.5z"/>
		<path class="st2" d="M410.56,395.24h-3.41v-45.51h23.75v3.27c-1.18-0.7-3.19-1.37-6.03-2c-1.53-0.28-3.21-0.46-5.03-0.55h-9.27
			v21.76h10.13v0.74h-10.13V395.24z"/>
		<path class="st2" d="M458.8,395.24h-23.7v-45.51h23.7l-0.02,3.27c-1.18-0.7-3.19-1.37-6.03-2c-1.92-0.37-4.1-0.55-6.53-0.55h-7.71
			v21.76h10.53v0.74h-10.53v21.57h7.37c2.65,0,4.94-0.18,6.87-0.55c2.84-0.63,4.85-1.3,6.03-2L458.8,395.24z M444.96,346.06v-0.93
			l4.82-4.57v2.17L444.96,346.06z"/>
	</g>
</g>
<path class="st4" d="M676.33,376.19H501.9c-2.2,0-3.98-1.78-3.98-3.98l0,0c0-2.2,1.78-3.98,3.98-3.98h174.43
	c2.2,0,3.98,1.78,3.98,3.98l0,0C680.31,374.41,678.53,376.19,676.33,376.19z"/>
<path class="st4" d="M289.44,376.19H115c-2.2,0-3.98-1.78-3.98-3.98l0,0c0-2.2,1.78-3.98,3.98-3.98h174.43
	c2.2,0,3.98,1.78,3.98,3.98l0,0C293.42,374.41,291.64,376.19,289.44,376.19z"/>
<g>
	<path class="st0" d="M358.48,307.48c-35.31-23.02-47.25-58.14-48.19-96.98c0.09-41.92,13.67-75.05,47.09-98.31
		c4.35-3.03,7.7-4.94,10.37-5.64c-3.28-7.67-7.93-7.01-18.69,0.47c-33.42,23.25-47,56.39-47.09,98.31
		c0.98,40.64,13.99,77.21,53.22,100.11C356.25,306.05,357.34,306.82,358.48,307.48z"/>
	<path class="st0" d="M396.69,202.64c9.08-35.9,6.04-71.08-5.15-105.95c-3.77-11.73-5.55-15.72-11.88-14.88
		c1.13,2.35,2.23,5.54,3.57,9.72c11.2,34.87,14.23,70.05,5.15,105.95c-10.36,40.96-8.61,81.84,1.62,122.6
		c3.56,14.19,1.77,16.18-12.86,13.06c-12.63-2.69-23.82-6.89-33.72-12.43c11.81,8.16,25.74,14.12,42.04,17.59
		c14.63,3.12,16.42,1.13,12.86-13.06C388.08,284.48,386.34,243.6,396.69,202.64z"/>
</g>
</svg>
